<svg width="47" height="46" viewBox="0 0 47 46" fill="none" xmlns="http://www.w3.org/2000/svg">
<rect y="8" width="38" height="38" rx="6" fill="#F1E9C9"/>
<path d="M27.2414 21.6203L26.193 27.3695C26.1065 27.8445 25.8561 28.274 25.4855 28.5834C25.1149 28.8927 24.6476 29.0623 24.1648 29.0625H14.1961L14.5742 31.125H23.8125C24.2204 31.125 24.6192 31.246 24.9584 31.4726C25.2975 31.6992 25.5619 32.0213 25.718 32.3982C25.8741 32.7751 25.915 33.1898 25.8354 33.5899C25.7558 33.99 25.5594 34.3575 25.2709 34.6459C24.9825 34.9344 24.615 35.1308 24.2149 35.2104C23.8148 35.2899 23.4001 35.2491 23.0232 35.093C22.6463 34.9369 22.3242 34.6725 22.0976 34.3334C21.871 33.9942 21.75 33.5954 21.75 33.1875C21.7501 32.9531 21.7908 32.7205 21.8703 32.5H16.8172C16.8967 32.7205 16.9374 32.9531 16.9375 33.1875C16.9381 33.5203 16.8582 33.8482 16.7046 34.1434C16.551 34.4386 16.3282 34.6923 16.0553 34.8827C15.7824 35.0732 15.4675 35.1947 15.1375 35.2371C14.8074 35.2794 14.472 35.2413 14.1599 35.1259C13.8477 35.0105 13.5682 34.8213 13.345 34.5745C13.1219 34.3276 12.9617 34.0304 12.8783 33.7083C12.7949 33.3861 12.7907 33.0486 12.866 32.7244C12.9414 32.4003 13.094 32.0992 13.3109 31.8469L10.9305 18.75H9.375C9.19266 18.75 9.0178 18.6776 8.88886 18.5486C8.75993 18.4197 8.6875 18.2448 8.6875 18.0625C8.6875 17.8802 8.75993 17.7053 8.88886 17.5764C9.0178 17.4474 9.19266 17.375 9.375 17.375H10.9305C11.2514 17.3757 11.562 17.4886 11.8084 17.6942C12.0548 17.8998 12.2215 18.1852 12.2797 18.5008L12.7008 20.8125H26.5625C26.6629 20.8127 26.7619 20.8352 26.8526 20.8783C26.9432 20.9214 27.0232 20.984 27.0867 21.0617C27.1532 21.137 27.2017 21.2264 27.2285 21.3232C27.2553 21.42 27.2597 21.5216 27.2414 21.6203Z" fill="#C47F17"/>
<rect x="26.3452" width="20" height="20" rx="10" fill="#C47F17"/>
<path d="M35.2144 9.00195H36.1167C36.4058 9.00195 36.644 8.95312 36.8315 8.85547C37.019 8.75391 37.1577 8.61328 37.2476 8.43359C37.3413 8.25 37.3882 8.03711 37.3882 7.79492C37.3882 7.57617 37.3452 7.38281 37.2593 7.21484C37.1772 7.04297 37.0503 6.91016 36.8784 6.81641C36.7065 6.71875 36.4897 6.66992 36.228 6.66992C36.021 6.66992 35.8296 6.71094 35.6538 6.79297C35.478 6.875 35.3374 6.99023 35.2319 7.13867C35.1265 7.28711 35.0737 7.4668 35.0737 7.67773H33.3804C33.3804 7.20898 33.5054 6.80078 33.7554 6.45312C34.0093 6.10547 34.3491 5.83398 34.7749 5.63867C35.2007 5.44336 35.6694 5.3457 36.1812 5.3457C36.7593 5.3457 37.2651 5.43945 37.6987 5.62695C38.1323 5.81055 38.4702 6.08203 38.7124 6.44141C38.9546 6.80078 39.0757 7.24609 39.0757 7.77734C39.0757 8.04688 39.0132 8.30859 38.8882 8.5625C38.7632 8.8125 38.5835 9.03906 38.3491 9.24219C38.1187 9.44141 37.8374 9.60156 37.5054 9.72266C37.1733 9.83984 36.8003 9.89844 36.3862 9.89844H35.2144V9.00195ZM35.2144 10.2852V9.41211H36.3862C36.8511 9.41211 37.2593 9.46484 37.6108 9.57031C37.9624 9.67578 38.2573 9.82812 38.4956 10.0273C38.7339 10.2227 38.9136 10.4551 39.0347 10.7246C39.1558 10.9902 39.2163 11.2852 39.2163 11.6094C39.2163 12.0078 39.1401 12.3633 38.9878 12.6758C38.8354 12.9844 38.6206 13.2461 38.3433 13.4609C38.0698 13.6758 37.7495 13.8398 37.3823 13.9531C37.0151 14.0625 36.6147 14.1172 36.1812 14.1172C35.8218 14.1172 35.4683 14.0684 35.1206 13.9707C34.7769 13.8691 34.4644 13.7188 34.1831 13.5195C33.9058 13.3164 33.6831 13.0625 33.5151 12.7578C33.3511 12.4492 33.269 12.084 33.269 11.6621H34.9624C34.9624 11.8809 35.0171 12.0762 35.1265 12.248C35.2358 12.4199 35.3862 12.5547 35.5776 12.6523C35.7729 12.75 35.9897 12.7988 36.228 12.7988C36.4976 12.7988 36.728 12.75 36.9194 12.6523C37.1147 12.5508 37.2632 12.4102 37.3647 12.2305C37.4702 12.0469 37.5229 11.834 37.5229 11.5918C37.5229 11.2793 37.4663 11.0293 37.353 10.8418C37.2397 10.6504 37.0776 10.5098 36.8667 10.4199C36.6558 10.3301 36.4058 10.2852 36.1167 10.2852H35.2144Z" fill="white"/>
</svg>
